<svg width="92" height="36" viewBox="0 0 92 36" fill="none" xmlns="http://www.w3.org/2000/svg">
<path d="M36.7324 5.1484C36.7324 3.38809 34.6225 2.48633 33.3502 3.7029L18.9034 17.5172C18.5088 17.8945 18.2857 18.4167 18.2857 18.9627L18.2857 30.851C18.2857 32.6113 20.3956 33.5131 21.6679 32.2965L36.1146 18.4822C36.5092 18.1049 36.7324 17.5827 36.7324 17.0367L36.7324 5.1484Z" fill="#FFC0B4"/>
<path d="M39.6224 23.4688H30.1904V10.1667H32.8724V20.9127H39.6224V23.4688ZM43.9085 10.9947C43.9085 11.4387 43.7585 11.8107 43.4585 12.1107C43.1585 12.4107 42.7865 12.5607 42.3425 12.5607C41.8985 12.5607 41.5265 12.4107 41.2265 12.1107C40.9265 11.8107 40.7765 11.4387 40.7765 10.9947C40.7765 10.5507 40.9265 10.1847 41.2265 9.89675C41.5265 9.59675 41.8985 9.44675 42.3425 9.44675C42.7865 9.44675 43.1585 9.59675 43.4585 9.89675C43.7585 10.1847 43.9085 10.5507 43.9085 10.9947ZM43.6025 13.6587V23.4688H41.0645V13.6587H43.6025ZM48.4004 23.4688H45.8624V13.6587H48.3464V15.0267C48.6104 14.5347 49.0184 14.1387 49.5704 13.8387C50.1224 13.5387 50.7404 13.3887 51.4244 13.3887C52.4924 13.3887 53.3984 13.7427 54.1425 14.4507C54.8864 15.1587 55.2584 16.1667 55.2584 17.4747V23.4688H52.7204V18.1587C52.7204 17.3907 52.5344 16.7967 52.1624 16.3767C51.7904 15.9447 51.2864 15.7287 50.6504 15.7287C49.9784 15.7287 49.4324 15.9627 49.0124 16.4307C48.6044 16.8867 48.4004 17.4807 48.4004 18.2127V23.4688ZM64.9349 14.7387V13.6587H67.2749V22.4967C67.2749 24.0808 66.7709 25.3288 65.7629 26.2408C64.7429 27.1648 63.4349 27.6268 61.8389 27.6268C60.1469 27.6268 58.6469 27.1528 57.3389 26.2048L58.3289 24.2968C59.4569 25.0648 60.6029 25.4488 61.7669 25.4488C62.7149 25.4488 63.4589 25.1968 63.9989 24.6928C64.5509 24.1888 64.8269 23.5347 64.8269 22.7307V22.2267C64.0709 23.0667 63.0629 23.4868 61.8029 23.4868C60.3629 23.4868 59.1869 23.0127 58.2749 22.0647C57.3629 21.1167 56.9069 19.9167 56.9069 18.4647C56.9069 17.0127 57.3869 15.8067 58.3469 14.8467C59.3069 13.8867 60.4949 13.4067 61.9109 13.4067C63.1109 13.4067 64.1189 13.8507 64.9349 14.7387ZM59.4629 18.4827C59.4629 19.2987 59.7209 19.9647 60.2369 20.4807C60.7649 21.0087 61.4129 21.2727 62.1809 21.2727C62.9489 21.2727 63.5969 21.0087 64.1249 20.4807C64.6409 19.9527 64.8989 19.2867 64.8989 18.4827C64.8989 17.6907 64.6409 17.0367 64.1249 16.5207C63.5969 15.9927 62.9489 15.7287 62.1809 15.7287C61.4129 15.7287 60.7649 15.9927 60.2369 16.5207C59.7209 17.0367 59.4629 17.6907 59.4629 18.4827ZM77.2433 22.5507C76.4513 23.3187 75.3533 23.7028 73.9493 23.7028C72.5453 23.7028 71.4413 23.3187 70.6373 22.5507C69.8453 21.7707 69.4493 20.6967 69.4493 19.3287V13.6587H71.9873V19.3287C71.9873 19.9527 72.1613 20.4507 72.5093 20.8228C72.8573 21.1947 73.3373 21.3807 73.9493 21.3807C74.5613 21.3807 75.0413 21.1947 75.3893 20.8228C75.7373 20.4507 75.9113 19.9527 75.9113 19.3287V13.6587H78.4493V19.3287C78.4493 20.7087 78.0473 21.7827 77.2433 22.5507ZM88.102 14.8287V13.6587H90.514V23.4688H88.102V22.3347C87.262 23.2467 86.218 23.7028 84.97 23.7028C83.554 23.7028 82.39 23.2107 81.478 22.2267C80.566 21.2427 80.11 20.0067 80.11 18.5187C80.11 17.0427 80.572 15.8247 81.496 14.8647C82.42 13.8927 83.578 13.4067 84.97 13.4067C86.194 13.4067 87.238 13.8807 88.102 14.8287ZM88.138 18.5547C88.138 17.7867 87.874 17.1207 87.346 16.5567C86.83 16.0047 86.176 15.7287 85.384 15.7287C84.58 15.7287 83.92 16.0047 83.404 16.5567C82.9 17.1087 82.648 17.7747 82.648 18.5547C82.648 19.3467 82.906 20.0187 83.422 20.5707C83.938 21.1227 84.592 21.3987 85.384 21.3987C86.176 21.3987 86.83 21.1227 87.346 20.5707C87.874 20.0067 88.138 19.3347 88.138 18.5547Z" fill="#181B32"/>
<path d="M18.4468 5.1484C18.4468 3.38809 16.3368 2.48633 15.0646 3.7029L0.617795 17.5172C0.223203 17.8945 1.21207e-05 18.4167 1.20252e-05 18.9627L9.94658e-06 30.851C9.6388e-06 32.6113 2.10996 33.5131 3.38223 32.2965L17.829 18.4822C18.2236 18.1049 18.4468 17.5827 18.4468 17.0367L18.4468 5.1484Z" fill="#524FD5"/>
</svg>
