<svg width="32" height="32" viewBox="0 0 32 32" fill="none" xmlns="http://www.w3.org/2000/svg">
<path fill-rule="evenodd" clip-rule="evenodd" d="M16.8462 19.9341L18.8545 21.9211L22.3732 18.4398C23.7237 17.1037 23.7237 14.9368 22.3732 13.6007L18.8197 10.085L16.8113 12.0719L18.3566 13.6007C19.7071 14.9368 19.7071 17.1037 18.3566 18.4398L16.8462 19.9341Z" fill="#F15A22"/>
<path fill-rule="evenodd" clip-rule="evenodd" d="M13.1814 23.5609L11.6929 25.0323L5.02949 18.4411C3.679 17.1037 3.679 14.9381 5.02949 13.602L11.6916 7.00951L13.144 8.44643L15.1523 6.4595L11.6929 3.03564L1.01286 13.6007C-0.337621 14.9368 -0.337621 17.1037 1.01286 18.4398L11.6916 29.0049L15.1871 25.5466L13.1814 23.5609Z" fill="#F26522"/>
<path fill-rule="evenodd" clip-rule="evenodd" d="M9.62706 13.5651C8.27658 14.9012 8.27658 17.068 9.62706 18.4042L20.3071 28.9705L30.9871 18.4042C32.3376 17.068 32.3376 14.9012 30.9871 13.5651L20.3071 3L9.62706 13.5651ZM26.9692 13.5651C28.3197 14.9012 28.3197 17.068 26.9692 18.4042L20.3058 24.9966L13.6424 18.4042C12.2919 17.068 12.2919 14.9012 13.6424 13.5651L20.3058 6.97387L26.9692 13.5651Z" fill="#F26522"/>
</svg>
