<svg width="642" height="700" viewBox="0 0 642 700" fill="none" xmlns="http://www.w3.org/2000/svg">
<path opacity="0.1" fill-rule="evenodd" clip-rule="evenodd" d="M196 250C196 202.671 209.152 158.415 232 120.685V155.123H282.046V143.34H246.871V120.926H274.583V109.581H246.871V98.8232C249.781 94.9958 252.799 91.2549 255.921 87.6049H282.046V75.8769H266.609C312.041 29.0789 375.625 0 446 0H642V176H585.865V187.615H608.897V252H623.074V187.615H642V669H196V250ZM520 115.5C520 121.309 519.031 126.698 517.092 131.667C515.153 136.599 512.427 140.874 508.915 144.491C505.403 148.108 501.178 150.94 496.239 152.986C491.301 154.995 485.831 156 479.832 156C473.832 156 468.345 154.995 463.369 152.986C458.431 150.94 454.187 148.108 450.638 144.491C447.127 140.874 444.401 136.599 442.462 131.667C440.523 126.698 439.554 121.309 439.554 115.5C439.554 109.691 440.523 104.32 442.462 99.3877C444.401 94.4188 447.127 90.1258 450.638 86.5088C454.187 82.8917 458.431 80.0785 463.369 78.069C468.345 76.023 473.832 75 479.832 75C485.831 75 491.301 76.023 496.239 78.069C501.178 80.115 505.403 82.9465 508.915 86.5636C512.427 90.1441 515.153 94.4188 517.092 99.3877C519.031 104.32 520 109.691 520 115.5ZM504.855 115.5C504.855 111.152 504.269 107.261 503.099 103.827C501.965 100.356 500.318 97.4147 498.16 95.0034C496.002 92.592 493.368 90.7469 490.258 89.4682C487.185 88.1894 483.71 87.5501 479.832 87.5501C475.954 87.5501 472.46 88.1894 469.351 89.4682C466.241 90.7469 463.589 92.592 461.394 95.0034C459.236 97.4147 457.571 100.356 456.4 103.827C455.23 107.261 454.644 111.152 454.644 115.5C454.644 119.848 455.23 123.757 456.4 127.228C457.571 130.662 459.236 133.585 461.394 135.997C463.589 138.371 466.241 140.198 469.351 141.477C472.46 142.756 475.954 143.395 479.832 143.395C483.71 143.395 487.185 142.756 490.258 141.477C493.368 140.198 496.002 138.371 498.16 135.997C500.318 133.585 501.965 130.662 503.099 127.228C504.269 123.757 504.855 119.848 504.855 115.5ZM326.743 143.231C329.596 143.231 332.139 142.756 334.37 141.806C336.638 140.856 338.541 139.522 340.077 137.805C341.65 136.088 342.839 134.005 343.644 131.558C344.486 129.11 344.906 126.369 344.906 123.337V75.8769H359.668V123.337C359.668 128.05 358.899 132.416 357.363 136.435C355.863 140.417 353.686 143.87 350.833 146.793C347.979 149.679 344.522 151.945 340.461 153.589C336.401 155.196 331.828 156 326.743 156C321.658 156 317.085 155.196 313.024 153.589C308.963 151.945 305.506 149.679 302.653 146.793C299.836 143.87 297.659 140.417 296.123 136.435C294.623 132.416 293.873 128.05 293.873 123.337V75.8769H308.634V123.282C308.634 126.315 309.037 129.055 309.841 131.503C310.683 133.951 311.872 136.051 313.408 137.805C314.945 139.522 316.829 140.856 319.06 141.806C321.328 142.756 323.889 143.231 326.743 143.231ZM389.908 155.123V124.159H396.218C397.682 124.159 398.779 124.36 399.511 124.762C400.279 125.164 400.974 125.84 401.596 126.79L418.278 152.164C418.9 153.114 419.65 153.844 420.528 154.356C421.442 154.867 422.54 155.123 423.82 155.123H437.1L417.235 125.858C415.882 123.885 414.272 122.369 412.406 121.309C415.187 120.432 417.656 119.263 419.814 117.802C422.009 116.34 423.839 114.641 425.302 112.705C426.802 110.769 427.936 108.613 428.704 106.238C429.509 103.863 429.911 101.342 429.911 98.6752C429.911 95.3139 429.326 92.2449 428.155 89.4682C427.021 86.6549 425.21 84.2436 422.723 82.2341C420.272 80.2246 417.107 78.6719 413.229 77.5758C409.388 76.4432 404.76 75.8769 399.346 75.8769H375.146V155.123H389.908ZM399.127 113.582H389.908V87.276H399.346C404.797 87.276 408.839 88.3539 411.473 90.5095C414.144 92.6651 415.479 95.7524 415.479 99.7713C415.479 101.781 415.15 103.626 414.492 105.306C413.833 106.987 412.827 108.449 411.473 109.691C410.156 110.896 408.455 111.846 406.37 112.541C404.321 113.235 401.907 113.582 399.127 113.582ZM359.177 225.248V252H345V176H369.823C374.918 176 379.328 176.596 383.052 177.787C386.776 178.978 389.851 180.643 392.275 182.78C394.7 184.917 396.492 187.475 397.651 190.454C398.811 193.432 399.39 196.691 399.39 200.23C399.39 203.909 398.775 207.29 397.546 210.373C396.316 213.422 394.471 216.05 392.012 218.257C389.552 220.465 386.478 222.182 382.789 223.408C379.099 224.634 374.778 225.248 369.823 225.248H359.177ZM359.177 214.21H369.823C372.424 214.21 374.69 213.895 376.622 213.264C378.555 212.598 380.153 211.67 381.418 210.479C382.683 209.252 383.632 207.781 384.264 206.064C384.897 204.312 385.213 202.367 385.213 200.23C385.213 198.197 384.897 196.358 384.264 194.711C383.632 193.064 382.683 191.663 381.418 190.506C380.153 189.35 378.555 188.474 376.622 187.878C374.69 187.248 372.424 186.932 369.823 186.932H359.177V214.21ZM425.057 222.304V252H410.88V176H434.122C439.322 176 443.767 176.543 447.456 177.629C451.18 178.68 454.22 180.17 456.574 182.097C458.963 184.024 460.702 186.337 461.791 189.035C462.916 191.698 463.478 194.641 463.478 197.864C463.478 200.422 463.091 202.84 462.318 205.118C461.581 207.395 460.491 209.462 459.051 211.32C457.645 213.177 455.889 214.806 453.78 216.207C451.707 217.609 449.336 218.73 446.665 219.571C448.457 220.587 450.003 222.041 451.303 223.934L470.382 252H457.628C456.398 252 455.344 251.755 454.466 251.264C453.622 250.774 452.902 250.073 452.305 249.162L436.283 224.827C435.686 223.916 435.018 223.268 434.28 222.882C433.577 222.497 432.523 222.304 431.118 222.304H425.057ZM425.057 212.16H433.911C436.581 212.16 438.9 211.828 440.868 211.162C442.871 210.496 444.505 209.585 445.77 208.429C447.07 207.237 448.036 205.836 448.668 204.224C449.301 202.612 449.617 200.843 449.617 198.916C449.617 195.061 448.334 192.101 445.77 190.033C443.24 187.966 439.357 186.932 434.122 186.932H425.057V212.16ZM481.215 252H495.445V176H481.215V252ZM520.053 176C520.685 176 521.212 176.035 521.634 176.105C522.056 176.14 522.425 176.245 522.741 176.42C523.092 176.561 523.426 176.788 523.742 177.104C524.058 177.384 524.41 177.769 524.796 178.26L564.798 229.084C564.658 227.858 564.552 226.667 564.482 225.51C564.447 224.319 564.429 223.215 564.429 222.199V176H576.92V252H569.594C568.47 252 567.539 251.825 566.801 251.474C566.063 251.124 565.343 250.493 564.64 249.582L524.796 198.968C524.902 200.089 524.972 201.211 525.007 202.332C525.077 203.418 525.112 204.417 525.112 205.328V252H512.622V176H520.053Z" fill="#37475A"/>
<path fill-rule="evenodd" clip-rule="evenodd" d="M265.281 558.315L296.907 589.151L352.318 535.123C373.584 514.388 373.584 480.759 352.318 460.023L296.358 405.461L264.732 436.297L289.066 460.023C310.333 480.759 310.333 514.388 289.066 535.123L265.281 558.315Z" fill="#F15A22"/>
<path fill-rule="evenodd" clip-rule="evenodd" d="M207.574 614.6L184.134 637.435L79.2016 535.143C57.935 514.388 57.935 480.779 79.2016 460.043L184.113 357.732L206.985 380.032L238.61 349.196L184.134 296.06L15.95 460.024C-5.31667 480.759 -5.31667 514.388 15.95 535.124L184.113 699.088L239.159 645.417L207.574 614.6Z" fill="#F26522"/>
<path fill-rule="evenodd" clip-rule="evenodd" d="M151.596 459.469C130.33 480.205 130.33 513.833 151.596 534.569L319.78 698.553L487.964 534.569C509.23 513.833 509.23 480.205 487.964 459.469L319.78 295.505L151.596 459.469ZM424.692 459.469C445.958 480.205 445.958 513.833 424.692 534.569L319.76 636.881L214.828 534.569C193.561 513.833 193.561 480.205 214.828 459.469L319.76 357.177L424.692 459.469Z" fill="#F26522"/>
</svg>
