<svg width="103" height="41" viewBox="0 0 103 41" fill="none" xmlns="http://www.w3.org/2000/svg">
<g clip-path="url(#clip0_0_552)">
<path fill-rule="evenodd" clip-rule="evenodd" d="M26.5579 26.6976L29.7241 29.8301L35.2715 24.3417C37.4006 22.2352 37.4006 18.8191 35.2715 16.7126L29.6692 11.1699L26.503 14.3024L28.9391 16.7126C31.0682 18.8191 31.0682 22.2352 28.9391 24.3417L26.5579 26.6976Z" fill="#F15A22"/>
<path fill-rule="evenodd" clip-rule="evenodd" d="M20.7805 32.4154L18.4338 34.7351L7.92859 24.3438C5.79949 22.2353 5.79949 18.8212 7.92859 16.7147L18.4317 6.32138L20.7215 8.58675L23.8877 5.45426L18.4338 0.0563965L1.5962 16.7127C-0.5329 18.8191 -0.5329 22.2353 1.5962 24.3417L18.4317 40.9981L23.9426 35.5459L20.7805 32.4154Z" fill="#F26522"/>
<path fill-rule="evenodd" clip-rule="evenodd" d="M15.1763 16.6563C13.0472 18.7627 13.0472 22.1789 15.1763 24.2853L32.0139 40.9437L48.8514 24.2853C50.9805 22.1789 50.9805 18.7627 48.8514 16.6563L32.0139 0L15.1763 16.6563ZM42.517 16.6563C44.6461 18.7627 44.6461 22.1789 42.517 24.2853L32.0118 34.6787L21.5067 24.2853C19.3776 22.1789 19.3776 18.7627 21.5067 16.6563L32.0118 6.26498L42.517 16.6563Z" fill="#F26522"/>
<path d="M64.7983 18.9138H57.1197V6.55884H64.6153V7.93697H59.0312V11.8642H63.8791V13.2443H59.0312V17.5336H64.7983V18.9138Z" fill="black"/>
<path d="M76.5887 6.55884V14.3166C76.5887 14.9705 76.4626 15.5861 76.2125 16.1615C75.9624 16.7369 75.6167 17.2399 75.1754 17.6704C74.7341 18.101 74.2115 18.441 73.6055 18.6884C72.9995 18.9359 72.3346 19.0606 71.6127 19.0606C70.9396 19.0606 70.3031 18.946 69.7032 18.7166C69.1033 18.4852 68.5766 18.1674 68.1252 17.763C67.6717 17.3566 67.3138 16.8677 67.0494 16.2923C66.7851 15.7169 66.6549 15.0832 66.6549 14.3931V6.55884H68.4546V14.4635C68.4546 14.9484 68.542 15.3869 68.721 15.7813C68.8979 16.1756 69.1379 16.5156 69.4388 16.7993C69.7378 17.085 70.0814 17.3023 70.4678 17.4531C70.8521 17.604 71.2466 17.6805 71.6533 17.6805C72.1048 17.6805 72.5278 17.598 72.9202 17.435C73.3127 17.2721 73.6523 17.0467 73.939 16.7631C74.2257 16.4794 74.4535 16.1454 74.6182 15.7652C74.7829 15.3829 74.8663 14.9745 74.8663 14.5379V6.55884H76.5887Z" fill="black"/>
<path d="M86.2499 18.9136C85.9936 18.3824 85.6866 17.8151 85.3327 17.2156C84.9769 16.616 84.623 16.0607 84.2672 15.5537C83.9113 15.0447 83.5758 14.6243 83.2565 14.2903C82.9372 13.9563 82.6871 13.7893 82.5041 13.7893H81.2738V18.9136H79.3623V6.55664H83.1833C83.7222 6.55664 84.2204 6.64114 84.68 6.81014C85.1396 6.97913 85.534 7.21855 85.8635 7.52838C86.1929 7.83619 86.4552 8.21241 86.6444 8.65503C86.8335 9.09764 86.9291 9.59055 86.9291 10.1358C86.9291 10.9003 86.7277 11.5662 86.3231 12.1356C85.9184 12.7049 85.3734 13.1053 84.6881 13.3346C85.0074 13.564 85.3104 13.8758 85.5971 14.2702C85.8858 14.6645 86.1705 15.0789 86.4512 15.5155L86.6708 15.8616L88.3423 18.9136H86.2499ZM83.0816 12.4092C83.3765 12.4092 83.6408 12.3488 83.8767 12.2281C84.1106 12.1074 84.3099 11.9444 84.4766 11.7473C84.6434 11.5461 84.7694 11.3147 84.8549 11.0471C84.9423 10.7816 84.983 10.4959 84.983 10.1941C84.983 9.86617 84.9281 9.56641 84.8162 9.2948C84.7064 9.02119 84.558 8.7858 84.3729 8.58662C84.1879 8.38745 83.9723 8.22851 83.7263 8.11383C83.4802 7.99916 83.2158 7.94081 82.9332 7.94081H81.2718V12.4112H83.0816V12.4092Z" fill="black"/>
<path d="M95.6528 6.42993C96.5211 6.42993 97.3264 6.58485 98.0686 6.89467C98.8088 7.20249 99.4514 7.63504 99.9964 8.19233C100.541 8.74761 100.966 9.41354 101.273 10.1881C101.578 10.9627 101.733 11.8137 101.733 12.7452C101.733 13.7129 101.574 14.5861 101.255 15.3687C100.938 16.1473 100.503 16.8112 99.9516 17.3544C99.4006 17.8996 98.7539 18.3201 98.0137 18.6159C97.2735 18.9136 96.4804 19.0605 95.6365 19.0605C94.7662 19.0605 93.9589 18.9096 93.2105 18.6058C92.4622 18.304 91.8216 17.8775 91.2827 17.3262C90.7439 16.777 90.3209 16.1131 90.0159 15.3385C89.7088 14.566 89.5563 13.7129 89.5563 12.7814C89.5563 11.8358 89.7129 10.9748 90.024 10.1962C90.3351 9.41555 90.7642 8.74761 91.3092 8.19032C91.8542 7.63303 92.4967 7.20048 93.237 6.89266C93.9792 6.58485 94.7845 6.42993 95.6528 6.42993ZM95.6528 17.6783C96.2771 17.6783 96.8383 17.5536 97.3325 17.3061C97.8286 17.0587 98.2537 16.7146 98.6095 16.2781C98.9654 15.8415 99.2379 15.3244 99.427 14.7309C99.6161 14.1354 99.7117 13.4856 99.7117 12.7834C99.7117 12.0431 99.61 11.3651 99.4087 10.7535C99.2074 10.1418 98.9247 9.61674 98.5648 9.17815C98.2028 8.74158 97.7737 8.40559 97.2796 8.16819C96.7834 7.93079 96.2344 7.8141 95.6365 7.8141C95.0102 7.8141 94.451 7.94286 93.9548 8.19636C93.4586 8.45187 93.0336 8.79992 92.6777 9.24253C92.3219 9.68514 92.0494 10.2082 91.8603 10.8078C91.6711 11.4093 91.5756 12.0551 91.5756 12.7452C91.5756 13.4856 91.6752 14.1596 91.8786 14.7651C92.0799 15.3727 92.3625 15.8918 92.7225 16.3223C93.0824 16.7529 93.5115 17.0888 94.0077 17.3242C94.5059 17.5596 95.0549 17.6783 95.6528 17.6783Z" fill="black"/>
<path d="M60.9589 22.2132C61.5466 22.2132 62.0875 22.3078 62.5837 22.4949C63.0799 22.682 63.5049 22.9435 63.8608 23.2755C64.2146 23.6094 64.4932 24.0138 64.6966 24.4926C64.8979 24.9715 64.9995 25.5026 64.9995 26.082C64.9995 26.6997 64.8897 27.2489 64.6681 27.7277C64.4485 28.2066 64.1475 28.6089 63.7693 28.9349C63.389 29.2628 62.9518 29.5103 62.4556 29.6793C61.9594 29.8483 61.4348 29.9348 60.8857 29.9348H59.0312V34.5681H57.1217V22.2112H60.9589V22.2132ZM60.9406 28.5566C61.5771 28.5566 62.0794 28.3212 62.4475 27.8464C62.8155 27.3757 62.9986 26.7862 62.9986 26.084C62.9986 25.3578 62.7993 24.7602 62.4007 24.2955C62.0021 23.8287 61.4856 23.5954 60.8491 23.5954H59.0312V28.5566H60.9406Z" fill="black"/>
<path d="M73.6317 34.5701C73.3755 34.037 73.0685 33.4696 72.7146 32.8701C72.3588 32.2706 72.0049 31.7153 71.6491 31.2083C71.2932 30.6993 70.9577 30.2788 70.6384 29.9448C70.3191 29.6109 70.069 29.4439 69.886 29.4439H68.6557V34.5681H66.7442V22.2112H70.5652C71.1041 22.2112 71.6023 22.2977 72.0619 22.4667C72.5214 22.6357 72.9159 22.8751 73.2454 23.1849C73.5768 23.4927 73.8371 23.869 74.0262 24.3116C74.2154 24.7542 74.3109 25.2471 74.3109 25.7923C74.3109 26.5568 74.1096 27.2228 73.705 27.7921C73.3003 28.3615 72.7553 28.7618 72.07 28.9912C72.3893 29.2206 72.6923 29.5324 72.979 29.9267C73.2677 30.321 73.5524 30.7355 73.8331 31.1721L74.0527 31.5181L75.7242 34.5721H73.6317V34.5701ZM70.4635 28.0637C70.7584 28.0637 71.0227 28.0034 71.2566 27.8827C71.4904 27.7619 71.6897 27.601 71.8565 27.4018C72.0232 27.2026 72.1493 26.9693 72.2347 26.7017C72.3222 26.4361 72.3649 26.1504 72.3649 25.8486C72.3649 25.5207 72.31 25.2209 72.1981 24.9493C72.0883 24.6757 71.9399 24.4403 71.7548 24.2412C71.5698 24.042 71.3562 23.883 71.1081 23.7684C70.8621 23.6537 70.5977 23.5954 70.3151 23.5954H68.6537V28.0657H70.4635V28.0637Z" fill="black"/>
<path d="M79.1061 22.2151H77.1966V34.572H79.1061V22.2151Z" fill="black"/>
<path d="M83.2566 34.5701H81.6765V22.2131H83.4762L90.2539 31.5362V22.2131H91.834V34.5701H90.1624L83.2566 25.1022V34.5701Z" fill="black"/>
<path d="M103 22.2131V23.5953H99.126V34.5701H97.2145V23.5953H93.3203V22.2131H103Z" fill="black"/>
</g>
<defs>
<clipPath id="clip0_0_552">
<rect width="103" height="41" fill="white"/>
</clipPath>
</defs>
</svg>
