<svg width="50" height="50" viewBox="0 0 50 50" fill="none" xmlns="http://www.w3.org/2000/svg">
<path d="M47.6902 30.702C46.684 40.8328 38.4754 48.9754 28.3373 49.9069C16.353 51.0082 6.13378 42.1969 4.9484 30.7444H2.83631C1.55224 30.7444 0.749712 29.3542 1.39187 28.2423L6.11556 20.0624C6.75764 18.9506 8.36254 18.9507 9.00453 20.0625L13.7273 28.2424C14.3693 29.3544 13.5668 30.7444 12.2828 30.7444H10.4441C11.6386 39.295 19.5991 45.7078 28.7261 44.3701C35.4799 43.3803 40.9583 38.0518 42.1063 31.323C43.8245 21.2518 36.0745 12.4865 26.3161 12.4865C23.1516 12.4865 20.0973 13.4047 17.4736 15.1433C16.2559 15.9502 14.568 15.7905 13.6747 14.6349C12.7021 13.3766 13.0058 11.5802 14.3027 10.7044C17.1177 8.80278 20.3089 7.61438 23.6522 7.20057V4.1H21.464C20.7111 4.1 20.1008 3.48971 20.1008 2.73676V1.36324C20.1008 0.610294 20.7111 0 21.464 0H31.612C32.3648 0 32.9752 0.610294 32.9752 1.36324V2.73676C32.9752 3.48962 32.3649 4.1 31.612 4.1H29.2017V7.23292C40.3824 8.7415 48.8646 18.8776 47.6902 30.702ZM48.3963 10.0707L44.2858 6.27124C43.7329 5.76021 42.8705 5.79412 42.3594 6.34698L41.272 7.52337C40.7609 8.07623 40.7948 8.93873 41.3478 9.44984L45.4582 13.2492C46.0112 13.7601 46.8736 13.7263 47.3847 13.1734L48.472 11.9971C48.9831 11.4442 48.9492 10.5817 48.3963 10.0707ZM26.2515 15.2891V28.622H39.4513C39.4514 20.5024 33.291 15.2891 26.2515 15.2891Z" fill="#131A22"/>
</svg>
